<svg width="512" height="512" viewBox="0 0 512 512" xmlns="http://www.w3.org/2000/svg">
  <!-- Light pink background -->
  <rect width="512" height="512" fill="#FFE5E5"/>
  
  <!-- Upper arch structure: three interconnected rounded elements -->
  <!-- Left lobe -->
  <path d="M 120 200 Q 100 180 100 160 Q 100 140 120 120 Q 140 100 160 100 Q 180 100 200 120 Q 220 140 220 160 Q 220 180 200 200 Q 180 220 160 220 Q 140 220 120 200 Z" fill="#000000"/>
  
  <!-- Right lobe -->
  <path d="M 312 200 Q 292 180 292 160 Q 292 140 312 120 Q 332 100 352 100 Q 372 100 392 120 Q 412 140 412 160 Q 412 180 392 200 Q 372 220 352 220 Q 332 220 312 200 Z" fill="#000000"/>
  
  <!-- Central inverted U connecting the lobes -->
  <path d="M 220 160 Q 240 140 256 140 Q 272 140 292 160 Q 292 180 272 200 Q 256 200 240 200 Q 220 180 220 160 Z" fill="#000000"/>
  
  <!-- Lower circular element -->
  <circle cx="256" cy="320" r="50" fill="#000000"/>
</svg>

